<svg height='100px' width='100px'  fill="#FFFFFF" xmlns="http://www.w3.org/2000/svg" xmlns:xlink="http://www.w3.org/1999/xlink" version="1.1" x="0px" y="0px" viewBox="0 0 32 32" enable-background="new 0 0 32 32" xml:space="preserve"><g><rect fill="none" width="32" height="32"></rect></g><g><g><path d="M16,12c-1.654,0-3-1.346-3-3s1.346-3,3-3s3,1.346,3,3S17.654,12,16,12z M16,8c-0.551,0-1,0.449-1,1s0.449,1,1,1    s1-0.449,1-1S16.551,8,16,8z"></path></g><g><path d="M16,4c-0.552,0-1-0.448-1-1V2c0-0.552,0.448-1,1-1s1,0.448,1,1v1C17,3.552,16.552,4,16,4z"></path></g><g><path d="M16,31c-0.552,0-1-0.448-1-1V15c0-0.552,0.448-1,1-1s1,0.448,1,1v15C17,30.552,16.552,31,16,31z"></path></g><g><path d="M20.243,5.757c-0.256,0-0.512-0.098-0.707-0.293c-0.391-0.391-0.391-1.023,0-1.414l0.707-0.707    c0.391-0.391,1.023-0.391,1.414,0s0.391,1.023,0,1.414L20.95,5.464C20.754,5.66,20.499,5.757,20.243,5.757z"></path></g><g><path d="M11.05,14.95c-0.256,0-0.512-0.098-0.707-0.293c-0.391-0.391-0.391-1.023,0-1.414l0.707-0.707    c0.391-0.391,1.023-0.391,1.414,0s0.391,1.023,0,1.414l-0.707,0.707C11.562,14.852,11.306,14.95,11.05,14.95z"></path></g><g><path d="M23,10h-1c-0.552,0-1-0.448-1-1s0.448-1,1-1h1c0.552,0,1,0.448,1,1S23.552,10,23,10z"></path></g><g><path d="M10,10H9c-0.552,0-1-0.448-1-1s0.448-1,1-1h1c0.552,0,1,0.448,1,1S10.552,10,10,10z"></path></g><g><path d="M20.95,14.95c-0.256,0-0.512-0.098-0.707-0.293l-0.707-0.707c-0.391-0.391-0.391-1.023,0-1.414s1.023-0.391,1.414,0    l0.707,0.707c0.391,0.391,0.391,1.023,0,1.414C21.461,14.852,21.206,14.95,20.95,14.95z"></path></g><g><path d="M11.757,5.757c-0.256,0-0.512-0.098-0.707-0.293l-0.707-0.707c-0.391-0.391-0.391-1.023,0-1.414s1.023-0.391,1.414,0    l0.707,0.707c0.391,0.391,0.391,1.023,0,1.414C12.269,5.66,12.013,5.757,11.757,5.757z"></path></g></g></svg>