<svg height='100px' width='100px'  fill="#FFFFFF" xmlns="http://www.w3.org/2000/svg" viewBox="0 0 128.44 128" x="0px" y="0px"><title>Asset 22</title><g data-name="Layer 2"><g><path d="M15.2,93.69C37.74,98.4,36.34,98.3,37.6,97.8c2.07-.84,1.87-1.74,4.1-11.44-6.79-1.93-9.89-2.23-11.09-4.77a4.6,4.6,0,0,1,2.59-6.13,76.56,76.56,0,0,1,10.85-3,2,2,0,0,0,1.57-1.8c.49-7.32,2.82-3.67,7.39-6.85a3,3,0,0,0,.52-4.41C46.9,51.64,42.3,47.28,45.4,29.8a34,34,0,0,0,.8-10.25A46.52,46.52,0,0,0,39.63,0H0V80.54C3.11,84,10.79,92.14,15.2,93.69Zm3-52.53a15.09,15.09,0,0,1,12.62-4.5c3.59.62,10.41,3.51,7.89,6.27a2,2,0,0,1-2.83.13c-4.2-3.83-10.52-4.46-15.83.09A1.36,1.36,0,0,1,18.18,41.16Z"></path><path d="M14.08,96.24h0C10,94.21,3,84.3,0,80.54V128H6.57C9.43,120.05,15.08,104.63,14.08,96.24Z"></path><rect x="50.07" y="70.25" width="89.33" height="6" transform="translate(-24.05 88.45) rotate(-45)"></rect><path d="M93.79,82.66l.16-.17h-.13Z"></path><path d="M80.1,89.37a2,2,0,0,0-.38-1.13l-1.14,1.14A3.71,3.71,0,0,0,80.1,89.37Z"></path><path d="M100,67.44a9,9,0,0,0-1.31-.87c1.6-3.34,4.61-8.27,7.94-9.84a2.07,2.07,0,0,0,2.63,1.56A2.17,2.17,0,0,1,107,56.55a3.1,3.1,0,0,1,2.24-.08,3.2,3.2,0,0,0-2.26,0,2.15,2.15,0,0,1,1.51-2.3,2.1,2.1,0,0,0-2,2.46c-3,1.2-5.89,5-7.63,7.81,2-4.86,5.79-11.54,10.06-13.72a2.71,2.71,0,0,0,3.47,1.92,2.81,2.81,0,0,1-3-2.12,4.12,4.12,0,0,1,3-.26,4.21,4.21,0,0,0-3,.13,2.79,2.79,0,0,1,1.89-3.15,2.73,2.73,0,0,0-2.34,3.33c-5,2.3-9.47,10.24-11.68,15.46a8.33,8.33,0,0,0-2-.38c.07-3.69.78-9.39,3.15-12.2a2.07,2.07,0,0,0,3,.34,2.18,2.18,0,0,1-2.72-.67,3.17,3.17,0,0,1,2-1,3.15,3.15,0,0,0-2.08.9,2.17,2.17,0,0,1,.43-2.73,2.1,2.1,0,0,0-.78,3.06,13.87,13.87,0,0,0-2.77,5.56c.46-3.71,1.63-9,4.13-11.76a2.71,2.71,0,0,0,3.93.55,2.8,2.8,0,0,1-3.6-.88,4.14,4.14,0,0,1,2.7-1.33,4.25,4.25,0,0,0-2.78,1.21,2.81,2.81,0,0,1,.64-3.62,2.74,2.74,0,0,0-1,3.95c-3.88,4-5.19,13-5.38,18.63a8.72,8.72,0,0,0-2,.34c-1.24-3.46-2.61-9-1.4-12.45a2.06,2.06,0,0,0,3-.78,2.16,2.16,0,0,1-2.78.35,3.1,3.1,0,0,1,1.52-1.66A3.16,3.16,0,0,0,90.86,53a2.17,2.17,0,0,1-.58-2.69,2.08,2.08,0,0,0,.37,3.12c-1.27,3-.56,7.85.27,11.18-2-4.81-4.36-12.42-2.87-17.15a2.71,2.71,0,0,0,3.81-1.13,2.81,2.81,0,0,1-3.65.69,4.2,4.2,0,0,1,1.92-2.33,4.23,4.23,0,0,0-2,2.25,2.8,2.8,0,0,1-.92-3.56,2.74,2.74,0,0,0,.74,4c-1.9,5.17.62,13.91,2.79,19.17a8.94,8.94,0,0,0-1.27.83c-2.39-2.78-5.62-7.44-5.73-11.08a2.07,2.07,0,0,0,2.49-1.78,2.17,2.17,0,0,1-2.47,1.31,3.13,3.13,0,0,1,.82-2.09,3.17,3.17,0,0,0-1,2.06,2.15,2.15,0,0,1-1.5-2.31,2.09,2.09,0,0,0,1.46,2.79c-.1,3.26,2.26,7.48,4.19,10.25-3.63-3.75-8.49-10-8.79-15a2.72,2.72,0,0,0,3.16-2.42,2.8,2.8,0,0,1-3.16,2,4.14,4.14,0,0,1,1-2.85,4.2,4.2,0,0,0-1.09,2.82,2.8,2.8,0,0,1-2.13-3,2.74,2.74,0,0,0,2.12,3.48c.08,5.55,5.61,12.79,9.49,16.9a8.13,8.13,0,0,0-.92,1.26c-3.37-1.83-7.9-5-9.27-8.27a2.07,2.07,0,0,0,1.68-2.56A2.15,2.15,0,0,1,78,61a3.09,3.09,0,0,1,0-2.24A3.14,3.14,0,0,0,77.83,61a2.16,2.16,0,0,1-2.23-1.62A2.08,2.08,0,0,0,78,61.47c1.06,3,4.71,6.11,7.37,7.93C80.67,67.22,74,63.13,72,58.66A2.7,2.7,0,0,0,74,55.28a2.8,2.8,0,0,1-2.25,2.95,4.18,4.18,0,0,1-.13-3,4.17,4.17,0,0,0,0,3,2.8,2.8,0,0,1-3.07-2,2.74,2.74,0,0,0,3.23,2.49c2,5.11,9.7,9.9,14.9,12.39a8.94,8.94,0,0,0-.41,1.56c-3.73-.5-9.11-1.82-11.58-4.4a2.07,2.07,0,0,0,.66-3,2.17,2.17,0,0,1-1,2.63,3.11,3.11,0,0,1-.78-2.1A3.17,3.17,0,0,0,74.3,68a2.17,2.17,0,0,1-2.66-.71,2.09,2.09,0,0,0,3,1.09c2,2.4,6.39,3.94,9.46,4.7C79,72.64,71.39,71.2,68,67.81a2.71,2.71,0,0,0,.73-3.91,2.8,2.8,0,0,1-1.05,3.56,4.19,4.19,0,0,1-1.2-2.76,4.21,4.21,0,0,0,1.08,2.83,2.81,2.81,0,0,1-3.59-.81,2.75,2.75,0,0,0,3.91,1.18c3.75,4,12.66,5.76,18.34,6.23a9.07,9.07,0,0,0,.18,1.66c-3.72.88-9.16,1.55-12.35,0a2.07,2.07,0,0,0-.46-3,2.17,2.17,0,0,1,0,2.8,3.14,3.14,0,0,1-1.49-1.68,3.17,3.17,0,0,0,1.4,1.78,2.17,2.17,0,0,1-2.74.29,2.09,2.09,0,0,0,3.15,0c2.71,1.5,7.14,1.39,10.2,1-4.89,1.42-12.3,2.69-16.63.8a2.72,2.72,0,0,0-.71-3.91,2.8,2.8,0,0,1,.29,3.7A4.15,4.15,0,0,1,65,75.42a4.15,4.15,0,0,0,2,2.25,2.81,2.81,0,0,1-3.64.54,2.74,2.74,0,0,0,4.06-.31c5,2.46,14,.84,19.37-.74a8.6,8.6,0,0,0,.79,1.54c-3,2-7.92,4.73-11.53,4.45a2.06,2.06,0,0,0-1.51-2.66,2.17,2.17,0,0,1,1,2.6,3.18,3.18,0,0,1-2-1,3.22,3.22,0,0,0,1.94,1.16,2.17,2.17,0,0,1-2.46,1.25A2.09,2.09,0,0,0,76,83.3c3,.41,6.85-1.15,9.54-2.51-3.83,2.86-10.18,6.68-14.91,6.46a2.71,2.71,0,0,0-2.07-3.39,2.8,2.8,0,0,1,1.6,3.35A4.13,4.13,0,0,1,67.41,86a4.21,4.21,0,0,0,2.7,1.39,2.81,2.81,0,0,1-3.21,1.8,2.75,2.75,0,0,0,3.69-1.74c5.2.48,12.46-3.71,17-7l18-18A54.45,54.45,0,0,0,100,67.44Z"></path><path d="M119.75,58.14a3.19,3.19,0,0,0-.88-.56l0,0A3.28,3.28,0,0,1,119.75,58.14Z"></path><path d="M78.19,87.32a2.32,2.32,0,0,1,1.53.92L80,88A2,2,0,0,0,78.19,87.32Z"></path><path d="M119,60.38a2.87,2.87,0,0,1-1.67-1.21l-.26.25A2.59,2.59,0,0,0,119,60.38Z"></path><path d="M77.86,89.11a2.43,2.43,0,0,0,.68.31l0,0A2.35,2.35,0,0,1,77.86,89.11Z"></path><path d="M73.79,92.55a3,3,0,0,1,1.25.37l.21-.21A2.46,2.46,0,0,0,73.79,92.55Z"></path><path d="M87,93.36a2.06,2.06,0,0,0-2.9-1,2.18,2.18,0,0,1,2.52,1.23,3.12,3.12,0,0,1-2.18.56,3.19,3.19,0,0,0,2.22-.44,2.14,2.14,0,0,1-1,2.57A2.08,2.08,0,0,0,87,93.5c2.34-1.59,4.12-5,5.19-7.66-1,4.5-3.08,11.19-6.62,14.09a2.72,2.72,0,0,0-3.81-1.14,2.8,2.8,0,0,1,3.43,1.42,4.1,4.1,0,0,1-2.87.9,4.26,4.26,0,0,0,2.93-.77,2.81,2.81,0,0,1-1.18,3.48,2.75,2.75,0,0,0,1.58-3.76c4.37-3.25,7-11.76,8.11-17.4L92,84.47C91,87.74,89.3,91.57,87,93.36Z"></path><path d="M115.11,69a2.07,2.07,0,0,0,.91,2.92,2.17,2.17,0,0,1-.47-2.76,3.12,3.12,0,0,1,1.73,1.44,3.22,3.22,0,0,0-1.66-1.55,2.16,2.16,0,0,1,2.67-.7,2.09,2.09,0,0,0-3.11.51c-2.1-.77-5-.57-7.52-.09l-.79.78C109.74,68.78,112.85,68.34,115.11,69Z"></path><path d="M122.09,76.05c-4.14-3.29-12.68-3.73-18.27-3.42l-4.1,4.1a4.81,4.81,0,0,1-.59,1.09,5.16,5.16,0,0,1-2.21,1.7l-3,3a8.45,8.45,0,0,0,1.74,0c.48,3.74.61,9.36-1.28,12.43a2.06,2.06,0,0,0-3,.13,2.17,2.17,0,0,1,2.79.25,3.15,3.15,0,0,1-1.83,1.3,3.2,3.2,0,0,0,1.91-1.2,2.14,2.14,0,0,1,0,2.75,2.09,2.09,0,0,0,.3-3.13c1.62-2.32,2-6.17,2.1-9,.73,4.68,1,11.59-1.17,15.45a2.71,2.71,0,0,0-4,.29,2.8,2.8,0,0,1,3.71.1,4.12,4.12,0,0,1-2.36,1.87A4.25,4.25,0,0,0,95.31,102a2.81,2.81,0,0,1,.14,3.67,2.74,2.74,0,0,0,.13-4.07c2.94-4.64,2.34-13.67,1.32-19.34a7.88,7.88,0,0,0,1.73-.68c1.76,3.24,4,8.53,3.29,12.11a2.07,2.07,0,0,0-2.81,1.22,2.18,2.18,0,0,1,2.7-.76A3.19,3.19,0,0,1,100.56,96a3.19,3.19,0,0,0,1.36-1.81,2.15,2.15,0,0,1,1,2.57,2.08,2.08,0,0,0-.84-3c.68-2.72-.28-6.4-1.21-9,2.24,3.93,5.06,10.21,4.37,14.68a2.71,2.71,0,0,0-3.6,1.69,2.8,2.8,0,0,1,3.51-1.23,4.22,4.22,0,0,1-1.54,2.59,4.25,4.25,0,0,0,1.66-2.54,2.81,2.81,0,0,1,1.45,3.38,2.74,2.74,0,0,0-1.34-3.85c1.1-5.43-2.77-13.69-5.69-18.52A9,9,0,0,0,101,79.62c2.82,2.4,6.78,6.56,7.45,10.18a2.06,2.06,0,0,0-2.18,2.14,2.18,2.18,0,0,1,2.24-1.68,3.16,3.16,0,0,1-.49,2.19,3.21,3.21,0,0,0,.62-2.17,2.16,2.16,0,0,1,1.84,2,2.09,2.09,0,0,0-1.87-2.53c-.35-2.82-2.63-6-4.46-8.11,3.51,2.87,8.43,7.76,9.39,12.2a2.72,2.72,0,0,0-2.75,2.87,2.81,2.81,0,0,1,2.83-2.41,4.14,4.14,0,0,1-.51,3,4.24,4.24,0,0,0,.65-3A2.8,2.8,0,0,1,116.35,97a2.74,2.74,0,0,0-2.62-3.12c-.93-5.48-7.5-11.8-12-15.26a8.33,8.33,0,0,0,.8-1.61c3.5,1.23,8.73,3.7,10.66,6.85A2.06,2.06,0,0,0,112,86.64a2.18,2.18,0,0,1,1.5-2.37,3.16,3.16,0,0,1,.32,2.23,3.22,3.22,0,0,0-.2-2.26A2.16,2.16,0,0,1,116,85.5a2.09,2.09,0,0,0-2.65-1.7c-1.37-2.57-4.74-4.74-7.31-6.1,4.38,1.43,10.84,4.26,13.35,8.1a2.71,2.71,0,0,0-1.54,3.66,2.81,2.81,0,0,1,1.78-3.26,4.16,4.16,0,0,1,.58,3,4.21,4.21,0,0,0-.45-3,2.81,2.81,0,0,1,3.33,1.55,2.73,2.73,0,0,0-3.56-2c-2.83-4.79-11.29-8.36-16.61-10a8.69,8.69,0,0,0,.17-1.74c3.88-.11,9.57.38,12.43,2.58a2.07,2.07,0,0,0-.2,3,2.16,2.16,0,0,1,.55-2.74,3.15,3.15,0,0,1,1.1,2,3.22,3.22,0,0,0-1-2,2.16,2.16,0,0,1,2.73.3,2.08,2.08,0,0,0-3.08-.63c-2.27-2-6.42-2.8-9.43-3.13,4.74-.28,12,.06,15.76,2.77a2.71,2.71,0,0,0-.13,4,2.81,2.81,0,0,1,.49-3.69A4.12,4.12,0,0,1,124,79a4.22,4.22,0,0,0-1.49-2.64,2.81,2.81,0,0,1,3.67.25A2.74,2.74,0,0,0,122.09,76.05Z"></path><path d="M114.58,62.8a2.24,2.24,0,0,0-.53-.4l0,0A2.31,2.31,0,0,1,114.58,62.8Z"></path><path d="M113.88,64.48a2.28,2.28,0,0,1-1.08-.84l-.23.24A1.92,1.92,0,0,0,113.88,64.48Z"></path><path d="M120.93,66.23a2.72,2.72,0,0,0,1.3,3.76,2.81,2.81,0,0,1-.86-3.62,4.13,4.13,0,0,1,2.41,1.81,4.2,4.2,0,0,0-2.34-1.93A2.82,2.82,0,0,1,125,65.17a2.74,2.74,0,0,0-4,.92c-3.13-1-7.42-.35-11.46.83l-1,1C112.61,66.45,117.48,65.31,120.93,66.23Z"></path></g></g></svg>