<svg height='100px' width='100px'  fill="#FFFFFF" xmlns:dc="http://purl.org/dc/elements/1.1/" xmlns:cc="http://creativecommons.org/ns#" xmlns:rdf="http://www.w3.org/1999/02/22-rdf-syntax-ns#" xmlns:svg="http://www.w3.org/2000/svg" xmlns="http://www.w3.org/2000/svg" xmlns:sodipodi="http://sodipodi.sourceforge.net/DTD/sodipodi-0.dtd" xmlns:inkscape="http://www.inkscape.org/namespaces/inkscape" version="1.1" x="0px" y="0px" viewBox="0 0 100 100"><g transform="translate(0,-952.36218)"><path style="font-size:medium;font-style:normal;font-variant:normal;font-weight:normal;font-stretch:normal;text-indent:0;text-align:start;text-decoration:none;line-height:normal;letter-spacing:normal;word-spacing:normal;text-transform:none;direction:ltr;block-progression:tb;writing-mode:lr-tb;text-anchor:start;baseline-shift:baseline;opacity:1;color:#000000;fill:#FFFFFF;fill-opacity:1;stroke:none;stroke-width:4;marker:none;visibility:visible;display:inline;overflow:visible;enable-background:accumulate;font-family:Sans;-inkscape-font-specification:Sans" d="M 13.8125 8 A 2.0002 2.0002 0 0 0 12 10 L 12 90 A 2.0002 2.0002 0 0 0 14 92 L 52 92 A 2.0002 2.0002 0 0 0 54 90 L 54 66.1875 C 55.325855 66.090302 56.656205 66 58 66 C 66.110758 66 74.929291 68.43405 84.84375 75.59375 A 2.0002 2.0002 0 1 0 87.15625 72.375 C 76.675369 64.8063 66.935434 62 58 62 C 56.653158 62 55.318688 62.073008 54 62.15625 L 54 47.1875 C 55.325855 47.090302 56.656205 47 58 47 C 66.110758 47 74.929291 49.43395 84.84375 56.59375 A 2.0002 2.0002 0 1 0 87.15625 53.375 C 76.675369 45.80625 66.935434 43 58 43 C 56.653157 43 55.318688 43.073008 54 43.15625 L 54 28.1875 C 55.325855 28.090301 56.656205 28 58 28 C 66.110751 28 74.929287 30.43412 84.84375 37.59375 A 2.0002 2.0002 0 1 0 87.15625 34.375 C 76.675373 26.80633 66.935441 24 58 24 C 56.653157 24 55.318688 24.073007 54 24.15625 L 54 10 A 2.0002 2.0002 0 0 0 52 8 L 26.15625 8 A 2.0002 2.0002 0 1 0 26.15625 12 L 50 12 L 50 24.5 C 37.006272 26.034908 25.517081 30.573251 16 30.09375 L 16 12 L 18.15625 12 A 2.0002 2.0002 0 1 0 18.15625 8 L 14 8 A 2.0002 2.0002 0 0 0 13.8125 8 z M 50 28.59375 L 50 43.5 C 37.006274 45.034894 25.517086 49.573202 16 49.09375 L 16 34.09375 C 26.657806 34.623003 37.962669 30.206658 50 28.59375 z M 50 47.59375 L 50 62.5 C 37.006275 64.034894 25.517088 68.573202 16 68.09375 L 16 53.09375 C 26.657801 53.622914 37.962667 49.206643 50 47.59375 z M 50 66.59375 L 50 88 L 16 88 L 16 72.09375 C 26.657799 72.622914 37.962665 68.206643 50 66.59375 z " transform="translate(0,952.36218)"></path></g></svg>