<svg height='100px' width='100px'  fill="#FFFFFF" xmlns="http://www.w3.org/2000/svg" xmlns:xlink="http://www.w3.org/1999/xlink" version="1.1" x="0px" y="0px" viewBox="0 0 100 100" enable-background="new 0 0 100 100" xml:space="preserve"><path fill="#FFFFFF" d="M7.982,49.984c0.158,0.843,0.834,1.492,1.684,1.613l33.463,4.781l4.78,33.464  c0.122,0.849,0.77,1.526,1.613,1.684c0.123,0.023,0.246,0.034,0.367,0.034c0.714,0,1.386-0.383,1.744-1.022  c0.229-0.407,22.957-40.999,34.069-64.123c0.939-1.953,1.786-3.576,2.532-5.008c2.647-5.076,4.245-8.14,1.126-11.26  c-1.141-1.141-2.394-1.696-3.831-1.696c-2.018,0-4.052,1.061-7.424,2.818c-1.433,0.747-3.058,1.594-5.013,2.534  C49.97,24.918,9.378,47.645,8.971,47.873C8.223,48.292,7.825,49.142,7.982,49.984z M74.826,17.409  c2.014-0.968,3.669-1.831,5.129-2.592c2.634-1.373,4.537-2.365,5.575-2.365c0.242,0,0.519,0.041,1.002,0.524  c0.887,0.887,0.831,1.454-1.843,6.582c-0.761,1.459-1.624,3.113-2.591,5.124c-8.697,18.097-24.573,47-31.069,58.717l-4.153-29.071  c-0.126-0.88-0.817-1.571-1.697-1.697L16.11,48.478C27.828,41.983,56.729,26.107,74.826,17.409z"></path></svg>